<mxfile host="app.diagrams.net" modified="2020-09-18T15:12:33.910Z" agent="5.0 (Windows)" etag="w3ikRhHOFNRrVLedzHtI" version="13.7.3" type="github">
  <diagram id="yMqxqqp1lVMMZ8iFN6uK" name="Page-1">
    <mxGraphModel dx="7160" dy="5755" grid="1" gridSize="10" guides="1" tooltips="1" connect="1" arrows="1" fold="1" page="1" pageScale="1" pageWidth="850" pageHeight="1100" math="0" shadow="0">
      <root>
        <mxCell id="0" />
        <mxCell id="1" parent="0" />
        <mxCell id="QZhExzyKwdBtSW_HFHdL-96" value="" style="rounded=0;whiteSpace=wrap;html=1;" vertex="1" parent="1">
          <mxGeometry x="3187" y="216" width="1140" height="760" as="geometry" />
        </mxCell>
        <mxCell id="QZhExzyKwdBtSW_HFHdL-57" value="" style="rounded=0;whiteSpace=wrap;html=1;" vertex="1" parent="1">
          <mxGeometry x="1937" y="216" width="1140" height="760" as="geometry" />
        </mxCell>
        <mxCell id="96jOyPDqxTO6i5AxBm5p-1" value="" style="rounded=0;whiteSpace=wrap;html=1;" parent="1" vertex="1">
          <mxGeometry x="-303" y="-775.5" width="760" height="880" as="geometry" />
        </mxCell>
        <mxCell id="96jOyPDqxTO6i5AxBm5p-2" value="Search For Designs" style="rounded=1;whiteSpace=wrap;html=1;align=center;" parent="1" vertex="1">
          <mxGeometry x="-178" y="-645.5" width="500" height="30" as="geometry" />
        </mxCell>
        <mxCell id="96jOyPDqxTO6i5AxBm5p-3" value="Search" style="rounded=1;whiteSpace=wrap;html=1;" parent="1" vertex="1">
          <mxGeometry x="322" y="-645.5" width="80" height="30" as="geometry" />
        </mxCell>
        <mxCell id="96jOyPDqxTO6i5AxBm5p-4" value="Long Sleeve" style="whiteSpace=wrap;html=1;aspect=fixed;" parent="1" vertex="1">
          <mxGeometry x="-23" y="-525.5" width="80" height="80" as="geometry" />
        </mxCell>
        <mxCell id="96jOyPDqxTO6i5AxBm5p-5" value="Short Sleeve" style="whiteSpace=wrap;html=1;aspect=fixed;" parent="1" vertex="1">
          <mxGeometry x="-153" y="-525.5" width="80" height="80" as="geometry" />
        </mxCell>
        <mxCell id="96jOyPDqxTO6i5AxBm5p-6" value="Hoodie" style="whiteSpace=wrap;html=1;aspect=fixed;" parent="1" vertex="1">
          <mxGeometry x="107" y="-525.5" width="80" height="80" as="geometry" />
        </mxCell>
        <mxCell id="96jOyPDqxTO6i5AxBm5p-7" value="Jacket" style="whiteSpace=wrap;html=1;aspect=fixed;" parent="1" vertex="1">
          <mxGeometry x="242" y="-525.5" width="80" height="80" as="geometry" />
        </mxCell>
        <mxCell id="96jOyPDqxTO6i5AxBm5p-8" value="&lt;font style=&quot;font-size: 18px&quot;&gt;First choose clothing option&lt;/font&gt;" style="text;html=1;strokeColor=none;fillColor=none;align=center;verticalAlign=middle;whiteSpace=wrap;rounded=0;" parent="1" vertex="1">
          <mxGeometry x="-53" y="-565.5" width="250" height="20" as="geometry" />
        </mxCell>
        <mxCell id="96jOyPDqxTO6i5AxBm5p-9" value="&lt;font style=&quot;font-size: 18px&quot;&gt;Choose Custom Design&lt;/font&gt;" style="text;html=1;strokeColor=none;fillColor=none;align=center;verticalAlign=middle;whiteSpace=wrap;rounded=0;" parent="1" vertex="1">
          <mxGeometry x="-83" y="-375.5" width="320" height="40" as="geometry" />
        </mxCell>
        <mxCell id="96jOyPDqxTO6i5AxBm5p-10" value="" style="whiteSpace=wrap;html=1;aspect=fixed;" parent="1" vertex="1">
          <mxGeometry x="-153" y="-325.5" width="80" height="80" as="geometry" />
        </mxCell>
        <mxCell id="96jOyPDqxTO6i5AxBm5p-11" value="" style="whiteSpace=wrap;html=1;aspect=fixed;" parent="1" vertex="1">
          <mxGeometry x="-153" y="-205.5" width="80" height="80" as="geometry" />
        </mxCell>
        <mxCell id="96jOyPDqxTO6i5AxBm5p-12" value="" style="whiteSpace=wrap;html=1;aspect=fixed;" parent="1" vertex="1">
          <mxGeometry x="-33" y="-205.5" width="80" height="80" as="geometry" />
        </mxCell>
        <mxCell id="96jOyPDqxTO6i5AxBm5p-13" value="" style="whiteSpace=wrap;html=1;aspect=fixed;" parent="1" vertex="1">
          <mxGeometry x="107" y="-205.5" width="80" height="80" as="geometry" />
        </mxCell>
        <mxCell id="96jOyPDqxTO6i5AxBm5p-14" value="" style="whiteSpace=wrap;html=1;aspect=fixed;" parent="1" vertex="1">
          <mxGeometry x="227" y="-205.5" width="80" height="80" as="geometry" />
        </mxCell>
        <mxCell id="96jOyPDqxTO6i5AxBm5p-15" value="" style="whiteSpace=wrap;html=1;aspect=fixed;" parent="1" vertex="1">
          <mxGeometry x="-33" y="-325.5" width="80" height="80" as="geometry" />
        </mxCell>
        <mxCell id="96jOyPDqxTO6i5AxBm5p-16" value="" style="whiteSpace=wrap;html=1;aspect=fixed;" parent="1" vertex="1">
          <mxGeometry x="107" y="-325.5" width="80" height="80" as="geometry" />
        </mxCell>
        <mxCell id="96jOyPDqxTO6i5AxBm5p-17" value="" style="whiteSpace=wrap;html=1;aspect=fixed;" parent="1" vertex="1">
          <mxGeometry x="227" y="-325.5" width="80" height="80" as="geometry" />
        </mxCell>
        <mxCell id="96jOyPDqxTO6i5AxBm5p-18" value="Add to Cart" style="rounded=1;whiteSpace=wrap;html=1;fillColor=#0050ef;strokeColor=#001DBC;fontColor=#ffffff;" parent="1" vertex="1">
          <mxGeometry x="-13" y="-25.5" width="150" height="40" as="geometry" />
        </mxCell>
        <mxCell id="96jOyPDqxTO6i5AxBm5p-19" value="3.5/5&amp;nbsp;&amp;nbsp;" style="text;html=1;strokeColor=none;fillColor=none;align=center;verticalAlign=middle;whiteSpace=wrap;rounded=0;" parent="1" vertex="1">
          <mxGeometry x="-160.5" y="-415.5" width="95" height="20" as="geometry" />
        </mxCell>
        <mxCell id="96jOyPDqxTO6i5AxBm5p-20" value="$20" style="text;html=1;strokeColor=none;fillColor=none;align=center;verticalAlign=middle;whiteSpace=wrap;rounded=0;" parent="1" vertex="1">
          <mxGeometry x="-133" y="-435.5" width="40" height="20" as="geometry" />
        </mxCell>
        <mxCell id="96jOyPDqxTO6i5AxBm5p-21" value="$45" style="text;html=1;strokeColor=none;fillColor=none;align=center;verticalAlign=middle;whiteSpace=wrap;rounded=0;" parent="1" vertex="1">
          <mxGeometry x="262" y="-435.5" width="40" height="20" as="geometry" />
        </mxCell>
        <mxCell id="96jOyPDqxTO6i5AxBm5p-22" value="$40" style="text;html=1;strokeColor=none;fillColor=none;align=center;verticalAlign=middle;whiteSpace=wrap;rounded=0;" parent="1" vertex="1">
          <mxGeometry x="127" y="-435.5" width="40" height="20" as="geometry" />
        </mxCell>
        <mxCell id="96jOyPDqxTO6i5AxBm5p-23" value="$25" style="text;html=1;strokeColor=none;fillColor=none;align=center;verticalAlign=middle;whiteSpace=wrap;rounded=0;" parent="1" vertex="1">
          <mxGeometry x="-3" y="-435.5" width="40" height="20" as="geometry" />
        </mxCell>
        <mxCell id="96jOyPDqxTO6i5AxBm5p-24" value="4.0/5&amp;nbsp;&amp;nbsp;" style="text;html=1;strokeColor=none;fillColor=none;align=center;verticalAlign=middle;whiteSpace=wrap;rounded=0;" parent="1" vertex="1">
          <mxGeometry x="234.5" y="-415.5" width="95" height="20" as="geometry" />
        </mxCell>
        <mxCell id="96jOyPDqxTO6i5AxBm5p-25" value="3.75/5&amp;nbsp;&amp;nbsp;" style="text;html=1;strokeColor=none;fillColor=none;align=center;verticalAlign=middle;whiteSpace=wrap;rounded=0;" parent="1" vertex="1">
          <mxGeometry x="99.5" y="-415.5" width="95" height="20" as="geometry" />
        </mxCell>
        <mxCell id="96jOyPDqxTO6i5AxBm5p-26" value="4.5/5&amp;nbsp;&amp;nbsp;" style="text;html=1;strokeColor=none;fillColor=none;align=center;verticalAlign=middle;whiteSpace=wrap;rounded=0;" parent="1" vertex="1">
          <mxGeometry x="-30.5" y="-415.5" width="95" height="20" as="geometry" />
        </mxCell>
        <mxCell id="96jOyPDqxTO6i5AxBm5p-27" value="" style="rounded=0;whiteSpace=wrap;html=1;" parent="1" vertex="1">
          <mxGeometry x="-303" y="-775.5" width="760" height="110" as="geometry" />
        </mxCell>
        <mxCell id="96jOyPDqxTO6i5AxBm5p-28" value="&lt;font style=&quot;font-size: 15px&quot;&gt;Company&lt;br&gt;Name&lt;br&gt;&lt;/font&gt;" style="text;html=1;strokeColor=none;fillColor=none;align=center;verticalAlign=middle;whiteSpace=wrap;rounded=0;" parent="1" vertex="1">
          <mxGeometry x="-218" y="-743" width="80" height="20" as="geometry" />
        </mxCell>
        <mxCell id="96jOyPDqxTO6i5AxBm5p-29" value="" style="html=1;verticalLabelPosition=bottom;align=center;labelBackgroundColor=#ffffff;verticalAlign=top;strokeWidth=2;strokeColor=#0080F0;shadow=0;dashed=0;shape=mxgraph.ios7.icons.shopping_cart;" parent="1" vertex="1">
          <mxGeometry x="407" y="-695.5" width="30" height="20" as="geometry" />
        </mxCell>
        <mxCell id="96jOyPDqxTO6i5AxBm5p-30" value="&lt;font style=&quot;font-size: 16px&quot;&gt;Login&lt;/font&gt;" style="text;html=1;strokeColor=none;fillColor=none;align=center;verticalAlign=middle;whiteSpace=wrap;rounded=0;" parent="1" vertex="1">
          <mxGeometry x="337" y="-695.5" width="50" height="20" as="geometry" />
        </mxCell>
        <mxCell id="96jOyPDqxTO6i5AxBm5p-31" value="&lt;font style=&quot;font-size: 18px&quot;&gt;LO&lt;br&gt;GO&lt;/font&gt;" style="whiteSpace=wrap;html=1;aspect=fixed;" parent="1" vertex="1">
          <mxGeometry x="-286" y="-760.5" width="55" height="55" as="geometry" />
        </mxCell>
        <mxCell id="96jOyPDqxTO6i5AxBm5p-32" value="&lt;font style=&quot;font-size: 18px;&quot;&gt;Home&lt;/font&gt;" style="text;html=1;strokeColor=none;fillColor=none;align=center;verticalAlign=middle;whiteSpace=wrap;rounded=0;fontSize=18;" parent="1" vertex="1">
          <mxGeometry x="19" y="-695.5" width="40" height="20" as="geometry" />
        </mxCell>
        <mxCell id="96jOyPDqxTO6i5AxBm5p-33" value="Browse" style="text;html=1;strokeColor=none;fillColor=none;align=center;verticalAlign=middle;whiteSpace=wrap;rounded=0;fontSize=18;" parent="1" vertex="1">
          <mxGeometry x="87" y="-695.5" width="40" height="20" as="geometry" />
        </mxCell>
        <mxCell id="96jOyPDqxTO6i5AxBm5p-34" value="Start Selling" style="text;html=1;align=center;verticalAlign=middle;whiteSpace=wrap;rounded=0;fontColor=#3399FF;" parent="1" vertex="1">
          <mxGeometry x="187" y="-705.5" width="73.5" height="40" as="geometry" />
        </mxCell>
        <mxCell id="96jOyPDqxTO6i5AxBm5p-35" value="Signup" style="text;html=1;align=center;verticalAlign=middle;whiteSpace=wrap;rounded=0;fontColor=#3399FF;" parent="1" vertex="1">
          <mxGeometry x="267" y="-705.5" width="43.5" height="40" as="geometry" />
        </mxCell>
        <mxCell id="96jOyPDqxTO6i5AxBm5p-36" value="" style="rounded=0;whiteSpace=wrap;html=1;" parent="1" vertex="1">
          <mxGeometry x="645" y="-1920" width="760" height="880" as="geometry" />
        </mxCell>
        <mxCell id="96jOyPDqxTO6i5AxBm5p-37" value="Search For Designs" style="rounded=1;whiteSpace=wrap;html=1;align=center;" parent="1" vertex="1">
          <mxGeometry x="770" y="-1790" width="500" height="30" as="geometry" />
        </mxCell>
        <mxCell id="96jOyPDqxTO6i5AxBm5p-38" value="Search" style="rounded=1;whiteSpace=wrap;html=1;" parent="1" vertex="1">
          <mxGeometry x="1270" y="-1790" width="80" height="30" as="geometry" />
        </mxCell>
        <mxCell id="96jOyPDqxTO6i5AxBm5p-39" value="art" style="whiteSpace=wrap;html=1;aspect=fixed;" parent="1" vertex="1">
          <mxGeometry x="920" y="-1670" width="80" height="80" as="geometry" />
        </mxCell>
        <mxCell id="96jOyPDqxTO6i5AxBm5p-40" value="art" style="whiteSpace=wrap;html=1;aspect=fixed;" parent="1" vertex="1">
          <mxGeometry x="800" y="-1670" width="80" height="80" as="geometry" />
        </mxCell>
        <mxCell id="96jOyPDqxTO6i5AxBm5p-41" value="art" style="whiteSpace=wrap;html=1;aspect=fixed;" parent="1" vertex="1">
          <mxGeometry x="1040" y="-1670" width="80" height="80" as="geometry" />
        </mxCell>
        <mxCell id="96jOyPDqxTO6i5AxBm5p-42" value="art" style="whiteSpace=wrap;html=1;aspect=fixed;" parent="1" vertex="1">
          <mxGeometry x="1160" y="-1670" width="80" height="80" as="geometry" />
        </mxCell>
        <mxCell id="96jOyPDqxTO6i5AxBm5p-43" value="art" style="whiteSpace=wrap;html=1;aspect=fixed;" parent="1" vertex="1">
          <mxGeometry x="1160" y="-1570" width="80" height="80" as="geometry" />
        </mxCell>
        <mxCell id="96jOyPDqxTO6i5AxBm5p-44" value="art" style="whiteSpace=wrap;html=1;aspect=fixed;" parent="1" vertex="1">
          <mxGeometry x="1040" y="-1570" width="80" height="80" as="geometry" />
        </mxCell>
        <mxCell id="96jOyPDqxTO6i5AxBm5p-45" value="art" style="whiteSpace=wrap;html=1;aspect=fixed;" parent="1" vertex="1">
          <mxGeometry x="920" y="-1570" width="80" height="80" as="geometry" />
        </mxCell>
        <mxCell id="96jOyPDqxTO6i5AxBm5p-46" value="art" style="whiteSpace=wrap;html=1;aspect=fixed;" parent="1" vertex="1">
          <mxGeometry x="800" y="-1570" width="80" height="80" as="geometry" />
        </mxCell>
        <mxCell id="96jOyPDqxTO6i5AxBm5p-47" value="&lt;font style=&quot;font-size: 21px&quot;&gt;Look Through our Designs&lt;/font&gt;" style="text;html=1;strokeColor=none;fillColor=none;align=center;verticalAlign=middle;whiteSpace=wrap;rounded=0;" parent="1" vertex="1">
          <mxGeometry x="855" y="-1730" width="340" height="20" as="geometry" />
        </mxCell>
        <mxCell id="96jOyPDqxTO6i5AxBm5p-48" value="" style="rounded=0;whiteSpace=wrap;html=1;" parent="1" vertex="1">
          <mxGeometry x="645" y="-1920" width="760" height="110" as="geometry" />
        </mxCell>
        <mxCell id="96jOyPDqxTO6i5AxBm5p-49" value="&lt;font style=&quot;font-size: 15px&quot;&gt;Company&lt;br&gt;Name&lt;br&gt;&lt;/font&gt;" style="text;html=1;strokeColor=none;fillColor=none;align=center;verticalAlign=middle;whiteSpace=wrap;rounded=0;" parent="1" vertex="1">
          <mxGeometry x="730" y="-1887.5" width="80" height="20" as="geometry" />
        </mxCell>
        <mxCell id="96jOyPDqxTO6i5AxBm5p-50" value="" style="html=1;verticalLabelPosition=bottom;align=center;labelBackgroundColor=#ffffff;verticalAlign=top;strokeWidth=2;strokeColor=#0080F0;shadow=0;dashed=0;shape=mxgraph.ios7.icons.shopping_cart;" parent="1" vertex="1">
          <mxGeometry x="1355" y="-1840" width="30" height="20" as="geometry" />
        </mxCell>
        <mxCell id="96jOyPDqxTO6i5AxBm5p-51" value="&lt;font style=&quot;font-size: 16px&quot;&gt;Login&lt;/font&gt;" style="text;html=1;strokeColor=none;fillColor=none;align=center;verticalAlign=middle;whiteSpace=wrap;rounded=0;" parent="1" vertex="1">
          <mxGeometry x="1285" y="-1840" width="50" height="20" as="geometry" />
        </mxCell>
        <mxCell id="96jOyPDqxTO6i5AxBm5p-52" value="&lt;font style=&quot;font-size: 18px&quot;&gt;LO&lt;br&gt;GO&lt;/font&gt;" style="whiteSpace=wrap;html=1;aspect=fixed;" parent="1" vertex="1">
          <mxGeometry x="662" y="-1905" width="55" height="55" as="geometry" />
        </mxCell>
        <mxCell id="96jOyPDqxTO6i5AxBm5p-53" value="&lt;font style=&quot;font-size: 18px;&quot;&gt;Home&lt;/font&gt;" style="text;html=1;strokeColor=none;fillColor=none;align=center;verticalAlign=middle;whiteSpace=wrap;rounded=0;fontSize=18;" parent="1" vertex="1">
          <mxGeometry x="967" y="-1840" width="40" height="20" as="geometry" />
        </mxCell>
        <mxCell id="96jOyPDqxTO6i5AxBm5p-54" value="Browse" style="text;html=1;strokeColor=none;fillColor=none;align=center;verticalAlign=middle;whiteSpace=wrap;rounded=0;fontSize=18;" parent="1" vertex="1">
          <mxGeometry x="1035" y="-1840" width="40" height="20" as="geometry" />
        </mxCell>
        <mxCell id="96jOyPDqxTO6i5AxBm5p-55" value="Start Selling" style="text;html=1;align=center;verticalAlign=middle;whiteSpace=wrap;rounded=0;fontColor=#3399FF;" parent="1" vertex="1">
          <mxGeometry x="1135" y="-1850" width="73.5" height="40" as="geometry" />
        </mxCell>
        <mxCell id="96jOyPDqxTO6i5AxBm5p-56" value="Signup" style="text;html=1;align=center;verticalAlign=middle;whiteSpace=wrap;rounded=0;fontColor=#3399FF;" parent="1" vertex="1">
          <mxGeometry x="1215" y="-1850" width="43.5" height="40" as="geometry" />
        </mxCell>
        <mxCell id="96jOyPDqxTO6i5AxBm5p-57" value="art" style="whiteSpace=wrap;html=1;aspect=fixed;" parent="1" vertex="1">
          <mxGeometry x="920" y="-1460" width="80" height="80" as="geometry" />
        </mxCell>
        <mxCell id="96jOyPDqxTO6i5AxBm5p-58" value="art" style="whiteSpace=wrap;html=1;aspect=fixed;" parent="1" vertex="1">
          <mxGeometry x="800" y="-1460" width="80" height="80" as="geometry" />
        </mxCell>
        <mxCell id="96jOyPDqxTO6i5AxBm5p-59" value="art" style="whiteSpace=wrap;html=1;aspect=fixed;" parent="1" vertex="1">
          <mxGeometry x="1040" y="-1460" width="80" height="80" as="geometry" />
        </mxCell>
        <mxCell id="96jOyPDqxTO6i5AxBm5p-60" value="art" style="whiteSpace=wrap;html=1;aspect=fixed;" parent="1" vertex="1">
          <mxGeometry x="1160" y="-1460" width="80" height="80" as="geometry" />
        </mxCell>
        <mxCell id="96jOyPDqxTO6i5AxBm5p-61" value="art" style="whiteSpace=wrap;html=1;aspect=fixed;" parent="1" vertex="1">
          <mxGeometry x="1160" y="-1360" width="80" height="80" as="geometry" />
        </mxCell>
        <mxCell id="96jOyPDqxTO6i5AxBm5p-62" value="art" style="whiteSpace=wrap;html=1;aspect=fixed;" parent="1" vertex="1">
          <mxGeometry x="1040" y="-1360" width="80" height="80" as="geometry" />
        </mxCell>
        <mxCell id="96jOyPDqxTO6i5AxBm5p-63" value="art" style="whiteSpace=wrap;html=1;aspect=fixed;" parent="1" vertex="1">
          <mxGeometry x="920" y="-1360" width="80" height="80" as="geometry" />
        </mxCell>
        <mxCell id="96jOyPDqxTO6i5AxBm5p-64" value="art" style="whiteSpace=wrap;html=1;aspect=fixed;" parent="1" vertex="1">
          <mxGeometry x="800" y="-1360" width="80" height="80" as="geometry" />
        </mxCell>
        <mxCell id="96jOyPDqxTO6i5AxBm5p-65" value="art" style="whiteSpace=wrap;html=1;aspect=fixed;" parent="1" vertex="1">
          <mxGeometry x="920" y="-1260" width="80" height="80" as="geometry" />
        </mxCell>
        <mxCell id="96jOyPDqxTO6i5AxBm5p-66" value="art" style="whiteSpace=wrap;html=1;aspect=fixed;" parent="1" vertex="1">
          <mxGeometry x="800" y="-1260" width="80" height="80" as="geometry" />
        </mxCell>
        <mxCell id="96jOyPDqxTO6i5AxBm5p-67" value="art" style="whiteSpace=wrap;html=1;aspect=fixed;" parent="1" vertex="1">
          <mxGeometry x="1040" y="-1260" width="80" height="80" as="geometry" />
        </mxCell>
        <mxCell id="96jOyPDqxTO6i5AxBm5p-68" value="art" style="whiteSpace=wrap;html=1;aspect=fixed;" parent="1" vertex="1">
          <mxGeometry x="1160" y="-1260" width="80" height="80" as="geometry" />
        </mxCell>
        <mxCell id="96jOyPDqxTO6i5AxBm5p-69" value="art" style="whiteSpace=wrap;html=1;aspect=fixed;" parent="1" vertex="1">
          <mxGeometry x="1160" y="-1160" width="80" height="80" as="geometry" />
        </mxCell>
        <mxCell id="96jOyPDqxTO6i5AxBm5p-70" value="art" style="whiteSpace=wrap;html=1;aspect=fixed;" parent="1" vertex="1">
          <mxGeometry x="1040" y="-1160" width="80" height="80" as="geometry" />
        </mxCell>
        <mxCell id="96jOyPDqxTO6i5AxBm5p-71" value="art" style="whiteSpace=wrap;html=1;aspect=fixed;" parent="1" vertex="1">
          <mxGeometry x="920" y="-1160" width="80" height="80" as="geometry" />
        </mxCell>
        <mxCell id="96jOyPDqxTO6i5AxBm5p-72" value="art" style="whiteSpace=wrap;html=1;aspect=fixed;" parent="1" vertex="1">
          <mxGeometry x="800" y="-1160" width="80" height="80" as="geometry" />
        </mxCell>
        <mxCell id="96jOyPDqxTO6i5AxBm5p-73" value="" style="whiteSpace=wrap;html=1;" parent="1" vertex="1">
          <mxGeometry x="1160" y="-1060" width="80" height="20" as="geometry" />
        </mxCell>
        <mxCell id="96jOyPDqxTO6i5AxBm5p-74" value="" style="whiteSpace=wrap;html=1;" parent="1" vertex="1">
          <mxGeometry x="1040" y="-1060" width="80" height="20" as="geometry" />
        </mxCell>
        <mxCell id="96jOyPDqxTO6i5AxBm5p-75" value="" style="whiteSpace=wrap;html=1;" parent="1" vertex="1">
          <mxGeometry x="920" y="-1060" width="80" height="20" as="geometry" />
        </mxCell>
        <mxCell id="96jOyPDqxTO6i5AxBm5p-76" value="" style="whiteSpace=wrap;html=1;" parent="1" vertex="1">
          <mxGeometry x="800" y="-1060" width="80" height="20" as="geometry" />
        </mxCell>
        <mxCell id="96jOyPDqxTO6i5AxBm5p-77" value="" style="rounded=1;whiteSpace=wrap;html=1;" parent="1" vertex="1">
          <mxGeometry x="1285" y="-1670" width="6.5" height="580" as="geometry" />
        </mxCell>
        <mxCell id="96jOyPDqxTO6i5AxBm5p-78" value="" style="rounded=1;whiteSpace=wrap;html=1;fillColor=#4D4D4D;" parent="1" vertex="1">
          <mxGeometry x="1285" y="-1580" width="6.5" height="60" as="geometry" />
        </mxCell>
        <mxCell id="96jOyPDqxTO6i5AxBm5p-79" value="" style="whiteSpace=wrap;html=1;" parent="1" vertex="1">
          <mxGeometry x="920" y="-1700" width="80" height="10" as="geometry" />
        </mxCell>
        <mxCell id="96jOyPDqxTO6i5AxBm5p-80" value="" style="whiteSpace=wrap;html=1;" parent="1" vertex="1">
          <mxGeometry x="800" y="-1700" width="80" height="10" as="geometry" />
        </mxCell>
        <mxCell id="96jOyPDqxTO6i5AxBm5p-81" value="" style="whiteSpace=wrap;html=1;" parent="1" vertex="1">
          <mxGeometry x="1040" y="-1700" width="80" height="10" as="geometry" />
        </mxCell>
        <mxCell id="96jOyPDqxTO6i5AxBm5p-82" value="" style="whiteSpace=wrap;html=1;" parent="1" vertex="1">
          <mxGeometry x="1160" y="-1700" width="80" height="10" as="geometry" />
        </mxCell>
        <mxCell id="96jOyPDqxTO6i5AxBm5p-83" value="" style="whiteSpace=wrap;html=1;strokeColor=none;" parent="1" vertex="1">
          <mxGeometry x="755" y="-1705" width="583.5" height="10" as="geometry" />
        </mxCell>
        <mxCell id="96jOyPDqxTO6i5AxBm5p-84" value="" style="rounded=0;whiteSpace=wrap;html=1;" parent="1" vertex="1">
          <mxGeometry x="615" y="-840" width="760" height="630" as="geometry" />
        </mxCell>
        <mxCell id="96jOyPDqxTO6i5AxBm5p-85" value="" style="rounded=0;whiteSpace=wrap;html=1;" parent="1" vertex="1">
          <mxGeometry x="615" y="-840" width="760" height="110" as="geometry" />
        </mxCell>
        <mxCell id="96jOyPDqxTO6i5AxBm5p-86" value="&lt;font style=&quot;font-size: 15px&quot;&gt;Company&lt;br&gt;Name&lt;br&gt;&lt;/font&gt;" style="text;html=1;strokeColor=none;fillColor=none;align=center;verticalAlign=middle;whiteSpace=wrap;rounded=0;" parent="1" vertex="1">
          <mxGeometry x="700" y="-807.5" width="80" height="20" as="geometry" />
        </mxCell>
        <mxCell id="96jOyPDqxTO6i5AxBm5p-87" value="" style="html=1;verticalLabelPosition=bottom;align=center;labelBackgroundColor=#ffffff;verticalAlign=top;strokeWidth=2;strokeColor=#0080F0;shadow=0;dashed=0;shape=mxgraph.ios7.icons.shopping_cart;" parent="1" vertex="1">
          <mxGeometry x="1325" y="-760" width="30" height="20" as="geometry" />
        </mxCell>
        <mxCell id="96jOyPDqxTO6i5AxBm5p-88" value="&lt;font style=&quot;font-size: 32px&quot;&gt;Popular designs&lt;/font&gt;&amp;nbsp;" style="text;html=1;strokeColor=none;fillColor=none;align=center;verticalAlign=middle;whiteSpace=wrap;rounded=0;" parent="1" vertex="1">
          <mxGeometry x="745" y="-760" width="490" height="150" as="geometry" />
        </mxCell>
        <mxCell id="96jOyPDqxTO6i5AxBm5p-89" value="art" style="whiteSpace=wrap;html=1;aspect=fixed;" parent="1" vertex="1">
          <mxGeometry x="845" y="-630" width="80" height="80" as="geometry" />
        </mxCell>
        <mxCell id="96jOyPDqxTO6i5AxBm5p-90" value="art" style="whiteSpace=wrap;html=1;aspect=fixed;" parent="1" vertex="1">
          <mxGeometry x="735" y="-630" width="80" height="80" as="geometry" />
        </mxCell>
        <mxCell id="96jOyPDqxTO6i5AxBm5p-91" value="art" style="whiteSpace=wrap;html=1;aspect=fixed;" parent="1" vertex="1">
          <mxGeometry x="950" y="-630" width="80" height="80" as="geometry" />
        </mxCell>
        <mxCell id="96jOyPDqxTO6i5AxBm5p-92" value="art" style="whiteSpace=wrap;html=1;aspect=fixed;" parent="1" vertex="1">
          <mxGeometry x="1065" y="-630" width="80" height="80" as="geometry" />
        </mxCell>
        <mxCell id="96jOyPDqxTO6i5AxBm5p-93" value="art" style="whiteSpace=wrap;html=1;aspect=fixed;" parent="1" vertex="1">
          <mxGeometry x="1185" y="-630" width="80" height="80" as="geometry" />
        </mxCell>
        <mxCell id="96jOyPDqxTO6i5AxBm5p-175" style="edgeStyle=orthogonalEdgeStyle;rounded=0;orthogonalLoop=1;jettySize=auto;html=1;exitX=0;exitY=0.5;exitDx=0;exitDy=0;fontSize=18;fillColor=#f8cecc;strokeColor=#b85450;dashed=1;" parent="1" source="96jOyPDqxTO6i5AxBm5p-94" target="96jOyPDqxTO6i5AxBm5p-1" edge="1">
          <mxGeometry relative="1" as="geometry" />
        </mxCell>
        <mxCell id="96jOyPDqxTO6i5AxBm5p-94" value="Buy Custom shirts now!" style="rounded=1;whiteSpace=wrap;html=1;" parent="1" vertex="1">
          <mxGeometry x="911" y="-360" width="157.5" height="50" as="geometry" />
        </mxCell>
        <mxCell id="96jOyPDqxTO6i5AxBm5p-95" value="&lt;font style=&quot;font-size: 19px&quot;&gt;We Provide independent artist with a platform to present their art!&lt;/font&gt;" style="text;html=1;strokeColor=none;fillColor=none;align=center;verticalAlign=middle;whiteSpace=wrap;rounded=0;" parent="1" vertex="1">
          <mxGeometry x="833" y="-510" width="315" height="70" as="geometry" />
        </mxCell>
        <mxCell id="96jOyPDqxTO6i5AxBm5p-96" value="&lt;font style=&quot;font-size: 16px&quot;&gt;Login&lt;/font&gt;" style="text;html=1;strokeColor=none;fillColor=none;align=center;verticalAlign=middle;whiteSpace=wrap;rounded=0;" parent="1" vertex="1">
          <mxGeometry x="1255" y="-760" width="50" height="20" as="geometry" />
        </mxCell>
        <mxCell id="96jOyPDqxTO6i5AxBm5p-97" value="&lt;font style=&quot;font-size: 19px&quot;&gt;All art can be added to our quality shirts and upperware&lt;/font&gt;" style="text;html=1;strokeColor=none;fillColor=none;align=center;verticalAlign=middle;whiteSpace=wrap;rounded=0;" parent="1" vertex="1">
          <mxGeometry x="867" y="-430" width="247" height="50" as="geometry" />
        </mxCell>
        <mxCell id="96jOyPDqxTO6i5AxBm5p-98" value="&lt;font style=&quot;font-size: 18px&quot;&gt;LO&lt;br&gt;GO&lt;/font&gt;" style="whiteSpace=wrap;html=1;aspect=fixed;" parent="1" vertex="1">
          <mxGeometry x="632" y="-825" width="55" height="55" as="geometry" />
        </mxCell>
        <mxCell id="96jOyPDqxTO6i5AxBm5p-177" style="edgeStyle=orthogonalEdgeStyle;rounded=0;orthogonalLoop=1;jettySize=auto;html=1;exitX=0.5;exitY=0;exitDx=0;exitDy=0;entryX=0.5;entryY=0;entryDx=0;entryDy=0;dashed=1;fontSize=18;fillColor=#f8cecc;strokeColor=#b85450;" parent="1" source="96jOyPDqxTO6i5AxBm5p-99" target="96jOyPDqxTO6i5AxBm5p-85" edge="1">
          <mxGeometry relative="1" as="geometry">
            <Array as="points">
              <mxPoint x="957" y="-860" />
              <mxPoint x="995" y="-860" />
            </Array>
          </mxGeometry>
        </mxCell>
        <mxCell id="96jOyPDqxTO6i5AxBm5p-99" value="&lt;font style=&quot;font-size: 18px;&quot;&gt;Home&lt;/font&gt;" style="text;html=1;strokeColor=none;fillColor=none;align=center;verticalAlign=middle;whiteSpace=wrap;rounded=0;fontSize=18;" parent="1" vertex="1">
          <mxGeometry x="937" y="-760" width="40" height="20" as="geometry" />
        </mxCell>
        <mxCell id="96jOyPDqxTO6i5AxBm5p-176" style="edgeStyle=orthogonalEdgeStyle;rounded=0;orthogonalLoop=1;jettySize=auto;html=1;exitX=0.5;exitY=0;exitDx=0;exitDy=0;entryX=0.5;entryY=1;entryDx=0;entryDy=0;dashed=1;fontSize=18;fillColor=#f8cecc;strokeColor=#b85450;" parent="1" source="96jOyPDqxTO6i5AxBm5p-100" target="96jOyPDqxTO6i5AxBm5p-36" edge="1">
          <mxGeometry relative="1" as="geometry" />
        </mxCell>
        <mxCell id="96jOyPDqxTO6i5AxBm5p-100" value="Browse" style="text;html=1;strokeColor=none;fillColor=none;align=center;verticalAlign=middle;whiteSpace=wrap;rounded=0;fontSize=18;" parent="1" vertex="1">
          <mxGeometry x="1005" y="-760" width="40" height="20" as="geometry" />
        </mxCell>
        <mxCell id="96jOyPDqxTO6i5AxBm5p-101" value="Start Selling" style="text;html=1;align=center;verticalAlign=middle;whiteSpace=wrap;rounded=0;fontColor=#3399FF;" parent="1" vertex="1">
          <mxGeometry x="1105" y="-770" width="73.5" height="40" as="geometry" />
        </mxCell>
        <mxCell id="96jOyPDqxTO6i5AxBm5p-102" value="Signup" style="text;html=1;align=center;verticalAlign=middle;whiteSpace=wrap;rounded=0;fontColor=#3399FF;" parent="1" vertex="1">
          <mxGeometry x="1185" y="-770" width="43.5" height="40" as="geometry" />
        </mxCell>
        <mxCell id="96jOyPDqxTO6i5AxBm5p-105" value="" style="rounded=0;whiteSpace=wrap;html=1;fontStyle=1;fontColor=#4D4D4D;align=center;" parent="1" vertex="1">
          <mxGeometry x="1890" y="-840" width="760" height="630" as="geometry" />
        </mxCell>
        <mxCell id="96jOyPDqxTO6i5AxBm5p-111" value="Name" style="rounded=0;whiteSpace=wrap;html=1;align=left;strokeColor=none;fontStyle=1;fontColor=#4D4D4D;" parent="1" vertex="1">
          <mxGeometry x="1925" y="-655" width="90" height="20" as="geometry" />
        </mxCell>
        <mxCell id="96jOyPDqxTO6i5AxBm5p-112" value="Street" style="rounded=0;whiteSpace=wrap;html=1;align=left;strokeColor=none;fontStyle=1;fontColor=#4D4D4D;" parent="1" vertex="1">
          <mxGeometry x="1925" y="-635" width="90" height="20" as="geometry" />
        </mxCell>
        <mxCell id="96jOyPDqxTO6i5AxBm5p-113" value="State" style="rounded=0;whiteSpace=wrap;html=1;align=left;strokeColor=none;fontStyle=1;fontColor=#4D4D4D;" parent="1" vertex="1">
          <mxGeometry x="1925" y="-595" width="90" height="20" as="geometry" />
        </mxCell>
        <mxCell id="96jOyPDqxTO6i5AxBm5p-114" value="Zip Code" style="rounded=0;whiteSpace=wrap;html=1;align=left;strokeColor=none;fontStyle=1;fontColor=#4D4D4D;" parent="1" vertex="1">
          <mxGeometry x="1925" y="-575" width="90" height="20" as="geometry" />
        </mxCell>
        <mxCell id="96jOyPDqxTO6i5AxBm5p-115" value="Phone Number" style="rounded=0;whiteSpace=wrap;html=1;align=left;strokeColor=none;fontStyle=1;fontColor=#4D4D4D;" parent="1" vertex="1">
          <mxGeometry x="1925" y="-555" width="90" height="20" as="geometry" />
        </mxCell>
        <mxCell id="96jOyPDqxTO6i5AxBm5p-116" value="Email Address" style="rounded=0;whiteSpace=wrap;html=1;align=left;strokeColor=none;fontStyle=1;fontColor=#4D4D4D;" parent="1" vertex="1">
          <mxGeometry x="1925" y="-535" width="90" height="20" as="geometry" />
        </mxCell>
        <mxCell id="96jOyPDqxTO6i5AxBm5p-117" value="573-212-3300" style="rounded=0;whiteSpace=wrap;html=1;align=left;strokeColor=none;fontColor=#4D4D4D;" parent="1" vertex="1">
          <mxGeometry x="2029" y="-555" width="420" height="20" as="geometry" />
        </mxCell>
        <mxCell id="96jOyPDqxTO6i5AxBm5p-118" value="78516" style="rounded=0;whiteSpace=wrap;html=1;align=left;strokeColor=none;fontColor=#4D4D4D;" parent="1" vertex="1">
          <mxGeometry x="2029" y="-575" width="420" height="20" as="geometry" />
        </mxCell>
        <mxCell id="96jOyPDqxTO6i5AxBm5p-119" value="Rachel Weikel" style="rounded=0;whiteSpace=wrap;html=1;align=left;strokeColor=none;fontColor=#4D4D4D;" parent="1" vertex="1">
          <mxGeometry x="2029" y="-655" width="420" height="20" as="geometry" />
        </mxCell>
        <mxCell id="96jOyPDqxTO6i5AxBm5p-120" value="910 Nelm Street" style="rounded=0;whiteSpace=wrap;html=1;align=left;strokeColor=none;fontColor=#4D4D4D;" parent="1" vertex="1">
          <mxGeometry x="2029" y="-635" width="420" height="20" as="geometry" />
        </mxCell>
        <mxCell id="96jOyPDqxTO6i5AxBm5p-121" value="rweikel@gmail.com" style="rounded=0;whiteSpace=wrap;html=1;align=left;strokeColor=none;fontColor=#4D4D4D;" parent="1" vertex="1">
          <mxGeometry x="2029" y="-535" width="420" height="20" as="geometry" />
        </mxCell>
        <mxCell id="96jOyPDqxTO6i5AxBm5p-122" value="Texas" style="rounded=0;whiteSpace=wrap;html=1;align=left;strokeColor=none;fontColor=#4D4D4D;" parent="1" vertex="1">
          <mxGeometry x="2029" y="-595" width="420" height="20" as="geometry" />
        </mxCell>
        <mxCell id="96jOyPDqxTO6i5AxBm5p-123" value="Edit Account Information" style="rounded=0;whiteSpace=wrap;html=1;align=left;strokeColor=none;fillColor=none;fontColor=#3399FF;fontSize=7;verticalAlign=bottom;" parent="1" vertex="1">
          <mxGeometry x="1925" y="-515" width="100" height="20" as="geometry" />
        </mxCell>
        <mxCell id="96jOyPDqxTO6i5AxBm5p-124" value="User Account" style="text;html=1;strokeColor=none;fillColor=none;align=left;verticalAlign=middle;whiteSpace=wrap;rounded=0;fontSize=31;fontColor=#4D4D4D;" parent="1" vertex="1">
          <mxGeometry x="1900" y="-715" width="340" height="20" as="geometry" />
        </mxCell>
        <mxCell id="96jOyPDqxTO6i5AxBm5p-126" value="City" style="rounded=0;whiteSpace=wrap;html=1;align=left;strokeColor=none;fontStyle=1;fontColor=#4D4D4D;" parent="1" vertex="1">
          <mxGeometry x="1925" y="-615" width="90" height="20" as="geometry" />
        </mxCell>
        <mxCell id="96jOyPDqxTO6i5AxBm5p-127" value="Alamo" style="rounded=0;whiteSpace=wrap;html=1;align=left;strokeColor=none;fontColor=#4D4D4D;" parent="1" vertex="1">
          <mxGeometry x="2029" y="-615" width="420" height="20" as="geometry" />
        </mxCell>
        <mxCell id="96jOyPDqxTO6i5AxBm5p-128" value="View Designer Dashboard" style="text;html=1;align=left;verticalAlign=middle;resizable=0;points=[];autosize=1;fontStyle=0;fontColor=#3399FF;" parent="1" vertex="1">
          <mxGeometry x="1925" y="-483" width="150" height="20" as="geometry" />
        </mxCell>
        <mxCell id="96jOyPDqxTO6i5AxBm5p-129" value="" style="rounded=0;whiteSpace=wrap;html=1;fontStyle=1;fontColor=#4D4D4D;align=center;" parent="1" vertex="1">
          <mxGeometry x="2825" y="-835" width="760" height="630" as="geometry" />
        </mxCell>
        <mxCell id="96jOyPDqxTO6i5AxBm5p-135" value="Designer Dashboard" style="text;html=1;strokeColor=none;fillColor=none;align=left;verticalAlign=middle;whiteSpace=wrap;rounded=0;fontSize=31;fontColor=#4D4D4D;" parent="1" vertex="1">
          <mxGeometry x="2840" y="-710" width="340" height="20" as="geometry" />
        </mxCell>
        <mxCell id="96jOyPDqxTO6i5AxBm5p-137" value="View Account Information" style="text;html=1;align=left;verticalAlign=middle;resizable=0;points=[];autosize=1;fontStyle=0;fontColor=#3399FF;" parent="1" vertex="1">
          <mxGeometry x="2865" y="-450" width="150" height="20" as="geometry" />
        </mxCell>
        <mxCell id="96jOyPDqxTO6i5AxBm5p-138" value="Designs" style="text;html=1;align=left;verticalAlign=middle;resizable=0;points=[];autosize=1;fontColor=#3399FF;fontStyle=1" parent="1" vertex="1">
          <mxGeometry x="2865" y="-678" width="60" height="20" as="geometry" />
        </mxCell>
        <mxCell id="96jOyPDqxTO6i5AxBm5p-139" value="Upload New Design" style="rounded=1;whiteSpace=wrap;html=1;fillColor=none;fontSize=12;align=center;fontStyle=1;fontColor=#3399FF;" parent="1" vertex="1">
          <mxGeometry x="2865" y="-495" width="140" height="20" as="geometry" />
        </mxCell>
        <mxCell id="96jOyPDqxTO6i5AxBm5p-140" value="All" style="rounded=1;whiteSpace=wrap;html=1;fillColor=none;fontSize=12;fontColor=#4D4D4D;align=center;strokeColor=none;" parent="1" vertex="1">
          <mxGeometry x="2955" y="-650" width="26" height="20" as="geometry" />
        </mxCell>
        <mxCell id="96jOyPDqxTO6i5AxBm5p-141" value="Filter by" style="text;html=1;align=left;verticalAlign=middle;resizable=0;points=[];autosize=1;fontStyle=1" parent="1" vertex="1">
          <mxGeometry x="2865" y="-650" width="60" height="20" as="geometry" />
        </mxCell>
        <mxCell id="96jOyPDqxTO6i5AxBm5p-142" value="art" style="whiteSpace=wrap;html=1;aspect=fixed;strokeColor=#4D4D4D;" parent="1" vertex="1">
          <mxGeometry x="2865" y="-615" width="80" height="80" as="geometry" />
        </mxCell>
        <mxCell id="96jOyPDqxTO6i5AxBm5p-143" value="art" style="whiteSpace=wrap;html=1;aspect=fixed;strokeColor=#4D4D4D;" parent="1" vertex="1">
          <mxGeometry x="2970" y="-615" width="80" height="80" as="geometry" />
        </mxCell>
        <mxCell id="96jOyPDqxTO6i5AxBm5p-144" value="Approved" style="whiteSpace=wrap;html=1;strokeColor=none;fontColor=#3399FF;align=center;fontSize=10;" parent="1" vertex="1">
          <mxGeometry x="2865" y="-535" width="80" height="20" as="geometry" />
        </mxCell>
        <mxCell id="96jOyPDqxTO6i5AxBm5p-145" value="Approved" style="whiteSpace=wrap;html=1;strokeColor=none;fontColor=#3399FF;align=center;fontSize=10;" parent="1" vertex="1">
          <mxGeometry x="2970" y="-535" width="80" height="20" as="geometry" />
        </mxCell>
        <mxCell id="96jOyPDqxTO6i5AxBm5p-146" value="art" style="whiteSpace=wrap;html=1;aspect=fixed;strokeColor=#4D4D4D;" parent="1" vertex="1">
          <mxGeometry x="2970" y="-615" width="80" height="80" as="geometry" />
        </mxCell>
        <mxCell id="96jOyPDqxTO6i5AxBm5p-147" value="Approved" style="whiteSpace=wrap;html=1;strokeColor=none;fontColor=#3399FF;align=center;fontSize=10;" parent="1" vertex="1">
          <mxGeometry x="2970" y="-535" width="80" height="20" as="geometry" />
        </mxCell>
        <mxCell id="96jOyPDqxTO6i5AxBm5p-148" value="" style="ellipse;whiteSpace=wrap;html=1;aspect=fixed;fontSize=12;fontColor=#3399FF;" parent="1" vertex="1">
          <mxGeometry x="2945" y="-645" width="10" height="10" as="geometry" />
        </mxCell>
        <mxCell id="96jOyPDqxTO6i5AxBm5p-149" value="Approved" style="rounded=1;whiteSpace=wrap;html=1;fillColor=none;fontSize=12;fontColor=#4D4D4D;align=center;strokeColor=none;" parent="1" vertex="1">
          <mxGeometry x="2991" y="-650" width="60" height="20" as="geometry" />
        </mxCell>
        <mxCell id="96jOyPDqxTO6i5AxBm5p-150" value="" style="ellipse;whiteSpace=wrap;html=1;aspect=fixed;fontSize=12;fontColor=#3399FF;fillColor=#3399FF;" parent="1" vertex="1">
          <mxGeometry x="2981" y="-645" width="10" height="10" as="geometry" />
        </mxCell>
        <mxCell id="96jOyPDqxTO6i5AxBm5p-151" value="Submitted" style="rounded=1;whiteSpace=wrap;html=1;fillColor=none;fontSize=12;fontColor=#4D4D4D;align=center;strokeColor=none;" parent="1" vertex="1">
          <mxGeometry x="3061" y="-650" width="59" height="20" as="geometry" />
        </mxCell>
        <mxCell id="96jOyPDqxTO6i5AxBm5p-152" value="" style="ellipse;whiteSpace=wrap;html=1;aspect=fixed;fontSize=12;fontColor=#3399FF;" parent="1" vertex="1">
          <mxGeometry x="3051" y="-645" width="10" height="10" as="geometry" />
        </mxCell>
        <mxCell id="96jOyPDqxTO6i5AxBm5p-153" value="Unapproved" style="rounded=1;whiteSpace=wrap;html=1;fillColor=none;fontSize=12;fontColor=#4D4D4D;align=center;strokeColor=none;" parent="1" vertex="1">
          <mxGeometry x="3134" y="-650" width="68" height="20" as="geometry" />
        </mxCell>
        <mxCell id="96jOyPDqxTO6i5AxBm5p-154" value="" style="ellipse;whiteSpace=wrap;html=1;aspect=fixed;fontSize=12;fontColor=#3399FF;" parent="1" vertex="1">
          <mxGeometry x="3124" y="-645" width="10" height="10" as="geometry" />
        </mxCell>
        <mxCell id="96jOyPDqxTO6i5AxBm5p-157" value="" style="rounded=0;whiteSpace=wrap;html=1;" parent="1" vertex="1">
          <mxGeometry x="1890" y="-840" width="760" height="110" as="geometry" />
        </mxCell>
        <mxCell id="96jOyPDqxTO6i5AxBm5p-158" value="&lt;font style=&quot;font-size: 15px&quot;&gt;Company&lt;br&gt;Name&lt;br&gt;&lt;/font&gt;" style="text;html=1;strokeColor=none;fillColor=none;align=center;verticalAlign=middle;whiteSpace=wrap;rounded=0;" parent="1" vertex="1">
          <mxGeometry x="1975" y="-807.5" width="80" height="20" as="geometry" />
        </mxCell>
        <mxCell id="96jOyPDqxTO6i5AxBm5p-159" value="" style="html=1;verticalLabelPosition=bottom;align=center;labelBackgroundColor=#ffffff;verticalAlign=top;strokeWidth=2;strokeColor=#0080F0;shadow=0;dashed=0;shape=mxgraph.ios7.icons.shopping_cart;" parent="1" vertex="1">
          <mxGeometry x="2600" y="-760" width="30" height="20" as="geometry" />
        </mxCell>
        <mxCell id="96jOyPDqxTO6i5AxBm5p-160" value="&lt;font style=&quot;font-size: 16px&quot;&gt;Login&lt;/font&gt;" style="text;html=1;strokeColor=none;fillColor=none;align=center;verticalAlign=middle;whiteSpace=wrap;rounded=0;" parent="1" vertex="1">
          <mxGeometry x="2530" y="-760" width="50" height="20" as="geometry" />
        </mxCell>
        <mxCell id="96jOyPDqxTO6i5AxBm5p-161" value="&lt;font style=&quot;font-size: 18px&quot;&gt;LO&lt;br&gt;GO&lt;/font&gt;" style="whiteSpace=wrap;html=1;aspect=fixed;" parent="1" vertex="1">
          <mxGeometry x="1907" y="-825" width="55" height="55" as="geometry" />
        </mxCell>
        <mxCell id="96jOyPDqxTO6i5AxBm5p-162" value="&lt;font style=&quot;font-size: 18px;&quot;&gt;Home&lt;/font&gt;" style="text;html=1;strokeColor=none;fillColor=none;align=center;verticalAlign=middle;whiteSpace=wrap;rounded=0;fontSize=18;" parent="1" vertex="1">
          <mxGeometry x="2212" y="-760" width="40" height="20" as="geometry" />
        </mxCell>
        <mxCell id="96jOyPDqxTO6i5AxBm5p-163" value="Browse" style="text;html=1;strokeColor=none;fillColor=none;align=center;verticalAlign=middle;whiteSpace=wrap;rounded=0;fontSize=18;" parent="1" vertex="1">
          <mxGeometry x="2280" y="-760" width="40" height="20" as="geometry" />
        </mxCell>
        <mxCell id="96jOyPDqxTO6i5AxBm5p-164" value="Start Selling" style="text;html=1;align=center;verticalAlign=middle;whiteSpace=wrap;rounded=0;fontColor=#3399FF;" parent="1" vertex="1">
          <mxGeometry x="2380" y="-770" width="73.5" height="40" as="geometry" />
        </mxCell>
        <mxCell id="96jOyPDqxTO6i5AxBm5p-165" value="Signup" style="text;html=1;align=center;verticalAlign=middle;whiteSpace=wrap;rounded=0;fontColor=#3399FF;" parent="1" vertex="1">
          <mxGeometry x="2460" y="-770" width="43.5" height="40" as="geometry" />
        </mxCell>
        <mxCell id="96jOyPDqxTO6i5AxBm5p-166" value="" style="rounded=0;whiteSpace=wrap;html=1;" parent="1" vertex="1">
          <mxGeometry x="2825" y="-835" width="760" height="110" as="geometry" />
        </mxCell>
        <mxCell id="96jOyPDqxTO6i5AxBm5p-167" value="&lt;font style=&quot;font-size: 15px&quot;&gt;Company&lt;br&gt;Name&lt;br&gt;&lt;/font&gt;" style="text;html=1;strokeColor=none;fillColor=none;align=center;verticalAlign=middle;whiteSpace=wrap;rounded=0;" parent="1" vertex="1">
          <mxGeometry x="2910" y="-802.5" width="80" height="20" as="geometry" />
        </mxCell>
        <mxCell id="96jOyPDqxTO6i5AxBm5p-168" value="" style="html=1;verticalLabelPosition=bottom;align=center;labelBackgroundColor=#ffffff;verticalAlign=top;strokeWidth=2;strokeColor=#0080F0;shadow=0;dashed=0;shape=mxgraph.ios7.icons.shopping_cart;" parent="1" vertex="1">
          <mxGeometry x="3535" y="-755" width="30" height="20" as="geometry" />
        </mxCell>
        <mxCell id="96jOyPDqxTO6i5AxBm5p-169" value="&lt;font style=&quot;font-size: 16px&quot;&gt;Login&lt;/font&gt;" style="text;html=1;strokeColor=none;fillColor=none;align=center;verticalAlign=middle;whiteSpace=wrap;rounded=0;" parent="1" vertex="1">
          <mxGeometry x="3465" y="-755" width="50" height="20" as="geometry" />
        </mxCell>
        <mxCell id="96jOyPDqxTO6i5AxBm5p-170" value="&lt;font style=&quot;font-size: 18px&quot;&gt;LO&lt;br&gt;GO&lt;/font&gt;" style="whiteSpace=wrap;html=1;aspect=fixed;" parent="1" vertex="1">
          <mxGeometry x="2842" y="-820" width="55" height="55" as="geometry" />
        </mxCell>
        <mxCell id="96jOyPDqxTO6i5AxBm5p-171" value="&lt;font style=&quot;font-size: 18px;&quot;&gt;Home&lt;/font&gt;" style="text;html=1;strokeColor=none;fillColor=none;align=center;verticalAlign=middle;whiteSpace=wrap;rounded=0;fontSize=18;" parent="1" vertex="1">
          <mxGeometry x="3147" y="-755" width="40" height="20" as="geometry" />
        </mxCell>
        <mxCell id="96jOyPDqxTO6i5AxBm5p-172" value="Browse" style="text;html=1;strokeColor=none;fillColor=none;align=center;verticalAlign=middle;whiteSpace=wrap;rounded=0;fontSize=18;" parent="1" vertex="1">
          <mxGeometry x="3215" y="-755" width="40" height="20" as="geometry" />
        </mxCell>
        <mxCell id="96jOyPDqxTO6i5AxBm5p-173" value="Start Selling" style="text;html=1;align=center;verticalAlign=middle;whiteSpace=wrap;rounded=0;fontColor=#3399FF;" parent="1" vertex="1">
          <mxGeometry x="3315" y="-765" width="73.5" height="40" as="geometry" />
        </mxCell>
        <mxCell id="96jOyPDqxTO6i5AxBm5p-174" value="Signup" style="text;html=1;align=center;verticalAlign=middle;whiteSpace=wrap;rounded=0;fontColor=#3399FF;" parent="1" vertex="1">
          <mxGeometry x="3395" y="-765" width="43.5" height="40" as="geometry" />
        </mxCell>
        <mxCell id="96jOyPDqxTO6i5AxBm5p-178" style="edgeStyle=orthogonalEdgeStyle;rounded=0;orthogonalLoop=1;jettySize=auto;html=1;dashed=1;fontSize=18;fillColor=#f8cecc;strokeColor=#b85450;entryX=-0.001;entryY=0.575;entryDx=0;entryDy=0;entryPerimeter=0;" parent="1" source="96jOyPDqxTO6i5AxBm5p-128" target="96jOyPDqxTO6i5AxBm5p-129" edge="1">
          <mxGeometry relative="1" as="geometry">
            <mxPoint x="2820" y="-473" as="targetPoint" />
          </mxGeometry>
        </mxCell>
        <mxCell id="QZhExzyKwdBtSW_HFHdL-7" value="" style="rounded=0;whiteSpace=wrap;html=1;" vertex="1" parent="1">
          <mxGeometry x="615" y="210" width="1140" height="760" as="geometry" />
        </mxCell>
        <mxCell id="QZhExzyKwdBtSW_HFHdL-8" value="" style="endArrow=none;html=1;endSize=0;startSize=0;rounded=0;strokeWidth=1;" edge="1" parent="1">
          <mxGeometry width="50" height="50" relative="1" as="geometry">
            <mxPoint x="615" y="350" as="sourcePoint" />
            <mxPoint x="1755" y="350" as="targetPoint" />
          </mxGeometry>
        </mxCell>
        <mxCell id="QZhExzyKwdBtSW_HFHdL-9" value="&lt;div&gt;&lt;span&gt;&lt;font style=&quot;font-size: 20px&quot;&gt;LOGO&lt;/font&gt;&lt;/span&gt;&lt;/div&gt;" style="whiteSpace=wrap;html=1;aspect=fixed;align=center;" vertex="1" parent="1">
          <mxGeometry x="635" y="230" width="80" height="80" as="geometry" />
        </mxCell>
        <mxCell id="QZhExzyKwdBtSW_HFHdL-10" value="&lt;font style=&quot;font-size: 20px&quot;&gt;Company&lt;/font&gt;" style="text;html=1;align=center;verticalAlign=middle;resizable=0;points=[];autosize=1;" vertex="1" parent="1">
          <mxGeometry x="725" y="250" width="100" height="20" as="geometry" />
        </mxCell>
        <mxCell id="QZhExzyKwdBtSW_HFHdL-11" value="&lt;font style=&quot;font-size: 20px&quot;&gt;Name&lt;/font&gt;" style="text;html=1;align=center;verticalAlign=middle;resizable=0;points=[];autosize=1;" vertex="1" parent="1">
          <mxGeometry x="740" y="270" width="70" height="20" as="geometry" />
        </mxCell>
        <mxCell id="QZhExzyKwdBtSW_HFHdL-12" value="&lt;font style=&quot;font-size: 30px&quot; color=&quot;#66b2ff&quot;&gt;Write a Review:&lt;/font&gt;" style="text;html=1;align=center;verticalAlign=middle;resizable=0;points=[];autosize=1;" vertex="1" parent="1">
          <mxGeometry x="1070" y="393" width="220" height="24" as="geometry" />
        </mxCell>
        <mxCell id="QZhExzyKwdBtSW_HFHdL-13" value="" style="endArrow=none;html=1;strokeWidth=1;strokeColor=#66B2FF;" edge="1" parent="1">
          <mxGeometry width="50" height="50" relative="1" as="geometry">
            <mxPoint x="755" y="430" as="sourcePoint" />
            <mxPoint x="1595" y="430" as="targetPoint" />
            <Array as="points" />
          </mxGeometry>
        </mxCell>
        <mxCell id="QZhExzyKwdBtSW_HFHdL-14" style="edgeStyle=orthogonalEdgeStyle;rounded=0;orthogonalLoop=1;jettySize=auto;html=1;exitX=0.5;exitY=1;exitDx=0;exitDy=0;startSize=0;endSize=0;strokeColor=#66B2FF;strokeWidth=1;" edge="1" parent="1">
          <mxGeometry relative="1" as="geometry">
            <mxPoint x="1095" y="500" as="sourcePoint" />
            <mxPoint x="1095" y="500" as="targetPoint" />
          </mxGeometry>
        </mxCell>
        <mxCell id="QZhExzyKwdBtSW_HFHdL-15" value="" style="endArrow=none;html=1;strokeColor=#66B2FF;strokeWidth=1;" edge="1" parent="1">
          <mxGeometry width="50" height="50" relative="1" as="geometry">
            <mxPoint x="755" y="830" as="sourcePoint" />
            <mxPoint x="1595" y="830" as="targetPoint" />
          </mxGeometry>
        </mxCell>
        <mxCell id="QZhExzyKwdBtSW_HFHdL-16" value="Art" style="whiteSpace=wrap;html=1;aspect=fixed;align=center;fillColor=none;" vertex="1" parent="1">
          <mxGeometry x="1140" y="442" width="80" height="80" as="geometry" />
        </mxCell>
        <mxCell id="QZhExzyKwdBtSW_HFHdL-17" value="Description of design&lt;br&gt;Top Chosen&lt;br&gt;Size Chosen" style="text;html=1;align=center;verticalAlign=middle;resizable=0;points=[];autosize=1;" vertex="1" parent="1">
          <mxGeometry x="1226" y="457" width="130" height="50" as="geometry" />
        </mxCell>
        <mxCell id="QZhExzyKwdBtSW_HFHdL-18" value="" style="rounded=0;whiteSpace=wrap;html=1;align=center;" vertex="1" parent="1">
          <mxGeometry x="1000" y="639" width="359" height="179.5" as="geometry" />
        </mxCell>
        <mxCell id="QZhExzyKwdBtSW_HFHdL-19" value="Please keep reviews relevant to the choice article and not the art" style="text;html=1;strokeColor=none;fillColor=none;align=left;verticalAlign=middle;whiteSpace=wrap;rounded=0;" vertex="1" parent="1">
          <mxGeometry x="1006" y="643" width="347" height="20" as="geometry" />
        </mxCell>
        <mxCell id="QZhExzyKwdBtSW_HFHdL-20" value="&lt;font style=&quot;font-size: 18px&quot;&gt;&lt;b&gt;How was your Experience with our Product?&lt;/b&gt;&lt;/font&gt;" style="text;html=1;align=center;verticalAlign=middle;resizable=0;points=[];autosize=1;" vertex="1" parent="1">
          <mxGeometry x="984" y="558" width="391" height="20" as="geometry" />
        </mxCell>
        <mxCell id="QZhExzyKwdBtSW_HFHdL-21" value="" style="verticalLabelPosition=bottom;verticalAlign=top;html=1;shape=mxgraph.basic.star" vertex="1" parent="1">
          <mxGeometry x="1049" y="845" width="31" height="26" as="geometry" />
        </mxCell>
        <mxCell id="QZhExzyKwdBtSW_HFHdL-22" value="" style="verticalLabelPosition=bottom;verticalAlign=top;html=1;shape=mxgraph.basic.star" vertex="1" parent="1">
          <mxGeometry x="1109" y="845" width="31" height="26" as="geometry" />
        </mxCell>
        <mxCell id="QZhExzyKwdBtSW_HFHdL-23" value="" style="verticalLabelPosition=bottom;verticalAlign=top;html=1;shape=mxgraph.basic.star" vertex="1" parent="1">
          <mxGeometry x="1169" y="845" width="31" height="26" as="geometry" />
        </mxCell>
        <mxCell id="QZhExzyKwdBtSW_HFHdL-24" value="" style="verticalLabelPosition=bottom;verticalAlign=top;html=1;shape=mxgraph.basic.star" vertex="1" parent="1">
          <mxGeometry x="1230" y="845" width="31" height="26" as="geometry" />
        </mxCell>
        <mxCell id="QZhExzyKwdBtSW_HFHdL-25" value="" style="verticalLabelPosition=bottom;verticalAlign=top;html=1;shape=mxgraph.basic.star" vertex="1" parent="1">
          <mxGeometry x="1290" y="845" width="31" height="26" as="geometry" />
        </mxCell>
        <mxCell id="QZhExzyKwdBtSW_HFHdL-26" value="" style="verticalLabelPosition=bottom;verticalAlign=top;html=1;shape=mxgraph.basic.rect;fillColor2=none;strokeWidth=1;size=20;indent=5;" vertex="1" parent="1">
          <mxGeometry x="999" y="604" width="361" height="24" as="geometry" />
        </mxCell>
        <mxCell id="QZhExzyKwdBtSW_HFHdL-27" value="Subject" style="text;html=1;strokeColor=none;fillColor=none;align=center;verticalAlign=middle;whiteSpace=wrap;rounded=0;" vertex="1" parent="1">
          <mxGeometry x="1160" y="606" width="40" height="20" as="geometry" />
        </mxCell>
        <mxCell id="QZhExzyKwdBtSW_HFHdL-28" value="" style="html=1;verticalLabelPosition=bottom;align=center;labelBackgroundColor=#ffffff;verticalAlign=top;strokeWidth=2;strokeColor=#0080F0;shadow=0;dashed=0;shape=mxgraph.ios7.icons.shopping_cart;" vertex="1" parent="1">
          <mxGeometry x="1704" y="320" width="30" height="20" as="geometry" />
        </mxCell>
        <mxCell id="QZhExzyKwdBtSW_HFHdL-29" value="&lt;font style=&quot;font-size: 16px&quot;&gt;Login&lt;/font&gt;" style="text;html=1;strokeColor=none;fillColor=none;align=center;verticalAlign=middle;whiteSpace=wrap;rounded=0;" vertex="1" parent="1">
          <mxGeometry x="1634" y="320" width="50" height="20" as="geometry" />
        </mxCell>
        <mxCell id="QZhExzyKwdBtSW_HFHdL-30" value="&lt;font style=&quot;font-size: 18px;&quot;&gt;Home&lt;/font&gt;" style="text;html=1;strokeColor=none;fillColor=none;align=center;verticalAlign=middle;whiteSpace=wrap;rounded=0;fontSize=18;" vertex="1" parent="1">
          <mxGeometry x="1126" y="320" width="40" height="20" as="geometry" />
        </mxCell>
        <mxCell id="QZhExzyKwdBtSW_HFHdL-31" value="Browse" style="text;html=1;strokeColor=none;fillColor=none;align=center;verticalAlign=middle;whiteSpace=wrap;rounded=0;fontSize=18;" vertex="1" parent="1">
          <mxGeometry x="1194" y="320" width="40" height="20" as="geometry" />
        </mxCell>
        <mxCell id="QZhExzyKwdBtSW_HFHdL-32" value="Start Selling" style="text;html=1;align=center;verticalAlign=middle;whiteSpace=wrap;rounded=0;fontColor=#3399FF;" vertex="1" parent="1">
          <mxGeometry x="1395.25" y="310" width="73.5" height="40" as="geometry" />
        </mxCell>
        <mxCell id="QZhExzyKwdBtSW_HFHdL-33" value="Signup" style="text;html=1;align=center;verticalAlign=middle;whiteSpace=wrap;rounded=0;fontColor=#3399FF;" vertex="1" parent="1">
          <mxGeometry x="1475.25" y="310" width="43.5" height="40" as="geometry" />
        </mxCell>
        <mxCell id="QZhExzyKwdBtSW_HFHdL-43" value="&lt;font style=&quot;font-size: 30px&quot; color=&quot;#66b2ff&quot;&gt;Reviews&lt;/font&gt;" style="text;html=1;align=center;verticalAlign=middle;resizable=0;points=[];autosize=1;" vertex="1" parent="1">
          <mxGeometry x="2444" y="393" width="123" height="24" as="geometry" />
        </mxCell>
        <mxCell id="QZhExzyKwdBtSW_HFHdL-44" value="" style="endArrow=none;html=1;strokeWidth=1;strokeColor=#66B2FF;" edge="1" parent="1">
          <mxGeometry width="50" height="50" relative="1" as="geometry">
            <mxPoint x="2080" y="430" as="sourcePoint" />
            <mxPoint x="2920" y="430" as="targetPoint" />
            <Array as="points" />
          </mxGeometry>
        </mxCell>
        <mxCell id="QZhExzyKwdBtSW_HFHdL-45" style="edgeStyle=orthogonalEdgeStyle;rounded=0;orthogonalLoop=1;jettySize=auto;html=1;exitX=0.5;exitY=1;exitDx=0;exitDy=0;startSize=0;endSize=0;strokeColor=#66B2FF;strokeWidth=1;" edge="1" parent="1">
          <mxGeometry relative="1" as="geometry">
            <mxPoint x="2420" y="500" as="sourcePoint" />
            <mxPoint x="2420" y="500" as="targetPoint" />
          </mxGeometry>
        </mxCell>
        <mxCell id="QZhExzyKwdBtSW_HFHdL-46" value="Article" style="whiteSpace=wrap;html=1;aspect=fixed;align=center;fillColor=none;" vertex="1" parent="1">
          <mxGeometry x="2465" y="454" width="80" height="80" as="geometry" />
        </mxCell>
        <mxCell id="QZhExzyKwdBtSW_HFHdL-47" value="Top Chosen&lt;br&gt;Size Chosen" style="text;html=1;align=center;verticalAlign=middle;resizable=0;points=[];autosize=1;" vertex="1" parent="1">
          <mxGeometry x="2582" y="478" width="78" height="32" as="geometry" />
        </mxCell>
        <mxCell id="QZhExzyKwdBtSW_HFHdL-48" value="" style="rounded=0;whiteSpace=wrap;html=1;align=center;" vertex="1" parent="1">
          <mxGeometry x="2325" y="549" width="359" height="389" as="geometry" />
        </mxCell>
        <mxCell id="QZhExzyKwdBtSW_HFHdL-49" value="Nice Item" style="text;html=1;strokeColor=none;fillColor=none;align=left;verticalAlign=middle;whiteSpace=wrap;rounded=0;" vertex="1" parent="1">
          <mxGeometry x="2340" y="586" width="100" height="20" as="geometry" />
        </mxCell>
        <mxCell id="QZhExzyKwdBtSW_HFHdL-50" value="" style="verticalLabelPosition=bottom;verticalAlign=top;html=1;shape=mxgraph.basic.star;fillColor=#CCCC00;" vertex="1" parent="1">
          <mxGeometry x="2340" y="563" width="17" height="16.15" as="geometry" />
        </mxCell>
        <mxCell id="QZhExzyKwdBtSW_HFHdL-51" value="" style="verticalLabelPosition=bottom;verticalAlign=top;html=1;shape=mxgraph.basic.star;fillColor=#CCCC00;" vertex="1" parent="1">
          <mxGeometry x="2361" y="563" width="17" height="16.15" as="geometry" />
        </mxCell>
        <mxCell id="QZhExzyKwdBtSW_HFHdL-52" value="" style="verticalLabelPosition=bottom;verticalAlign=top;html=1;shape=mxgraph.basic.star;fillColor=#CCCC00;" vertex="1" parent="1">
          <mxGeometry x="2382" y="563" width="17" height="16.15" as="geometry" />
        </mxCell>
        <mxCell id="QZhExzyKwdBtSW_HFHdL-53" value="" style="verticalLabelPosition=bottom;verticalAlign=top;html=1;shape=mxgraph.basic.star;fillColor=#CCCC00;" vertex="1" parent="1">
          <mxGeometry x="2403" y="563" width="17" height="16.15" as="geometry" />
        </mxCell>
        <mxCell id="QZhExzyKwdBtSW_HFHdL-54" value="" style="verticalLabelPosition=bottom;verticalAlign=top;html=1;shape=mxgraph.basic.star" vertex="1" parent="1">
          <mxGeometry x="2424" y="563" width="17" height="16.15" as="geometry" />
        </mxCell>
        <mxCell id="QZhExzyKwdBtSW_HFHdL-55" value="by Username on Sept 16, 2020" style="text;html=1;strokeColor=none;fillColor=none;align=left;verticalAlign=middle;whiteSpace=wrap;rounded=0;" vertex="1" parent="1">
          <mxGeometry x="2342" y="613" width="330" height="20" as="geometry" />
        </mxCell>
        <mxCell id="QZhExzyKwdBtSW_HFHdL-56" value="Well made, durable material. I love how it feels too!" style="text;html=1;strokeColor=none;fillColor=none;align=left;verticalAlign=middle;whiteSpace=wrap;rounded=0;" vertex="1" parent="1">
          <mxGeometry x="2340" y="640" width="327" height="20" as="geometry" />
        </mxCell>
        <mxCell id="QZhExzyKwdBtSW_HFHdL-58" value="" style="endArrow=none;html=1;endSize=0;startSize=0;rounded=0;strokeWidth=1;" edge="1" parent="1">
          <mxGeometry width="50" height="50" relative="1" as="geometry">
            <mxPoint x="1936.9999999999995" y="348.33" as="sourcePoint" />
            <mxPoint x="3077" y="348.33" as="targetPoint" />
          </mxGeometry>
        </mxCell>
        <mxCell id="QZhExzyKwdBtSW_HFHdL-59" value="&lt;div&gt;&lt;span&gt;&lt;font style=&quot;font-size: 20px&quot;&gt;LOGO&lt;/font&gt;&lt;/span&gt;&lt;/div&gt;" style="whiteSpace=wrap;html=1;aspect=fixed;align=center;" vertex="1" parent="1">
          <mxGeometry x="1957" y="228.33" width="80" height="80" as="geometry" />
        </mxCell>
        <mxCell id="QZhExzyKwdBtSW_HFHdL-60" value="&lt;font style=&quot;font-size: 20px&quot;&gt;Company&lt;/font&gt;" style="text;html=1;align=center;verticalAlign=middle;resizable=0;points=[];autosize=1;" vertex="1" parent="1">
          <mxGeometry x="2047" y="248.33" width="100" height="20" as="geometry" />
        </mxCell>
        <mxCell id="QZhExzyKwdBtSW_HFHdL-61" value="&lt;font style=&quot;font-size: 20px&quot;&gt;Name&lt;/font&gt;" style="text;html=1;align=center;verticalAlign=middle;resizable=0;points=[];autosize=1;" vertex="1" parent="1">
          <mxGeometry x="2062" y="268.33" width="70" height="20" as="geometry" />
        </mxCell>
        <mxCell id="QZhExzyKwdBtSW_HFHdL-62" value="" style="html=1;verticalLabelPosition=bottom;align=center;labelBackgroundColor=#ffffff;verticalAlign=top;strokeWidth=2;strokeColor=#0080F0;shadow=0;dashed=0;shape=mxgraph.ios7.icons.shopping_cart;" vertex="1" parent="1">
          <mxGeometry x="3026" y="318.33" width="30" height="20" as="geometry" />
        </mxCell>
        <mxCell id="QZhExzyKwdBtSW_HFHdL-63" value="&lt;font style=&quot;font-size: 16px&quot;&gt;Login&lt;/font&gt;" style="text;html=1;strokeColor=none;fillColor=none;align=center;verticalAlign=middle;whiteSpace=wrap;rounded=0;" vertex="1" parent="1">
          <mxGeometry x="2956" y="318.33" width="50" height="20" as="geometry" />
        </mxCell>
        <mxCell id="QZhExzyKwdBtSW_HFHdL-64" value="&lt;font style=&quot;font-size: 18px;&quot;&gt;Home&lt;/font&gt;" style="text;html=1;strokeColor=none;fillColor=none;align=center;verticalAlign=middle;whiteSpace=wrap;rounded=0;fontSize=18;" vertex="1" parent="1">
          <mxGeometry x="2448" y="318.33" width="40" height="20" as="geometry" />
        </mxCell>
        <mxCell id="QZhExzyKwdBtSW_HFHdL-65" value="Browse" style="text;html=1;strokeColor=none;fillColor=none;align=center;verticalAlign=middle;whiteSpace=wrap;rounded=0;fontSize=18;" vertex="1" parent="1">
          <mxGeometry x="2516" y="318.33" width="40" height="20" as="geometry" />
        </mxCell>
        <mxCell id="QZhExzyKwdBtSW_HFHdL-66" value="Start Selling" style="text;html=1;align=center;verticalAlign=middle;whiteSpace=wrap;rounded=0;fontColor=#3399FF;" vertex="1" parent="1">
          <mxGeometry x="2717.25" y="308.33" width="73.5" height="40" as="geometry" />
        </mxCell>
        <mxCell id="QZhExzyKwdBtSW_HFHdL-67" value="Signup" style="text;html=1;align=center;verticalAlign=middle;whiteSpace=wrap;rounded=0;fontColor=#3399FF;" vertex="1" parent="1">
          <mxGeometry x="2797.25" y="308.33" width="43.5" height="40" as="geometry" />
        </mxCell>
        <mxCell id="QZhExzyKwdBtSW_HFHdL-77" value="&lt;font style=&quot;font-size: 30px&quot; color=&quot;#66b2ff&quot;&gt;Checkout:&lt;/font&gt;" style="text;html=1;align=center;verticalAlign=middle;resizable=0;points=[];autosize=1;" vertex="1" parent="1">
          <mxGeometry x="3697" y="376" width="150" height="30" as="geometry" />
        </mxCell>
        <mxCell id="QZhExzyKwdBtSW_HFHdL-78" value="" style="endArrow=none;html=1;strokeWidth=1;strokeColor=#66B2FF;" edge="1" parent="1">
          <mxGeometry width="50" height="50" relative="1" as="geometry">
            <mxPoint x="3347" y="416" as="sourcePoint" />
            <mxPoint x="4187" y="416" as="targetPoint" />
            <Array as="points" />
          </mxGeometry>
        </mxCell>
        <mxCell id="QZhExzyKwdBtSW_HFHdL-79" value="" style="rounded=0;whiteSpace=wrap;html=1;fillColor=#E0E0E0;align=left;" vertex="1" parent="1">
          <mxGeometry x="3187" y="456" width="1140" height="40" as="geometry" />
        </mxCell>
        <mxCell id="QZhExzyKwdBtSW_HFHdL-80" value="Price" style="text;html=1;strokeColor=none;fillColor=none;align=center;verticalAlign=middle;whiteSpace=wrap;rounded=0;" vertex="1" parent="1">
          <mxGeometry x="3667" y="466" width="40" height="20" as="geometry" />
        </mxCell>
        <mxCell id="QZhExzyKwdBtSW_HFHdL-81" value="QTY" style="text;html=1;strokeColor=none;fillColor=none;align=center;verticalAlign=middle;whiteSpace=wrap;rounded=0;" vertex="1" parent="1">
          <mxGeometry x="3827" y="466" width="40" height="20" as="geometry" />
        </mxCell>
        <mxCell id="QZhExzyKwdBtSW_HFHdL-82" value="&lt;font style=&quot;font-size: 12px&quot;&gt;Total Price&lt;/font&gt;" style="text;html=1;strokeColor=none;fillColor=none;align=center;verticalAlign=middle;whiteSpace=wrap;rounded=0;" vertex="1" parent="1">
          <mxGeometry x="4107" y="466" width="60" height="20" as="geometry" />
        </mxCell>
        <mxCell id="QZhExzyKwdBtSW_HFHdL-83" style="edgeStyle=orthogonalEdgeStyle;rounded=0;orthogonalLoop=1;jettySize=auto;html=1;exitX=0.5;exitY=1;exitDx=0;exitDy=0;startSize=0;endSize=0;strokeColor=#66B2FF;strokeWidth=1;" edge="1" parent="1" source="QZhExzyKwdBtSW_HFHdL-80" target="QZhExzyKwdBtSW_HFHdL-80">
          <mxGeometry relative="1" as="geometry" />
        </mxCell>
        <mxCell id="QZhExzyKwdBtSW_HFHdL-84" value="" style="endArrow=none;html=1;strokeColor=#66B2FF;strokeWidth=1;" edge="1" parent="1">
          <mxGeometry width="50" height="50" relative="1" as="geometry">
            <mxPoint x="3347" y="816" as="sourcePoint" />
            <mxPoint x="4187" y="816" as="targetPoint" />
          </mxGeometry>
        </mxCell>
        <mxCell id="QZhExzyKwdBtSW_HFHdL-85" value="" style="rounded=0;whiteSpace=wrap;html=1;fillColor=#E0E0E0;" vertex="1" parent="1">
          <mxGeometry x="3842" y="856" width="425" height="100" as="geometry" />
        </mxCell>
        <mxCell id="QZhExzyKwdBtSW_HFHdL-86" value="Merchandise Subtotal" style="text;html=1;strokeColor=none;fillColor=none;align=left;verticalAlign=middle;whiteSpace=wrap;rounded=0;" vertex="1" parent="1">
          <mxGeometry x="3857" y="866" width="160" height="20" as="geometry" />
        </mxCell>
        <mxCell id="QZhExzyKwdBtSW_HFHdL-87" value="Sales Tax" style="text;html=1;strokeColor=none;fillColor=none;align=left;verticalAlign=middle;whiteSpace=wrap;rounded=0;" vertex="1" parent="1">
          <mxGeometry x="3857" y="886" width="140" height="20" as="geometry" />
        </mxCell>
        <mxCell id="QZhExzyKwdBtSW_HFHdL-88" value="&lt;b&gt;&lt;font style=&quot;font-size: 14px&quot;&gt;Order Total&lt;/font&gt;&lt;/b&gt;" style="text;html=1;strokeColor=none;fillColor=none;align=left;verticalAlign=middle;whiteSpace=wrap;rounded=0;" vertex="1" parent="1">
          <mxGeometry x="3857" y="926" width="120" height="20" as="geometry" />
        </mxCell>
        <mxCell id="QZhExzyKwdBtSW_HFHdL-89" value="" style="endArrow=none;html=1;strokeColor=#66B2FF;strokeWidth=1;entryX=1.002;entryY=0.6;entryDx=0;entryDy=0;entryPerimeter=0;" edge="1" parent="1" target="QZhExzyKwdBtSW_HFHdL-85">
          <mxGeometry width="50" height="50" relative="1" as="geometry">
            <mxPoint x="3840" y="916" as="sourcePoint" />
            <mxPoint x="4257" y="916" as="targetPoint" />
            <Array as="points">
              <mxPoint x="4055" y="916" />
            </Array>
          </mxGeometry>
        </mxCell>
        <mxCell id="QZhExzyKwdBtSW_HFHdL-90" value="Art" style="whiteSpace=wrap;html=1;aspect=fixed;align=center;fillColor=none;" vertex="1" parent="1">
          <mxGeometry x="3227" y="536" width="80" height="80" as="geometry" />
        </mxCell>
        <mxCell id="QZhExzyKwdBtSW_HFHdL-91" value="Item" style="text;html=1;strokeColor=none;fillColor=none;align=center;verticalAlign=middle;whiteSpace=wrap;rounded=0;" vertex="1" parent="1">
          <mxGeometry x="3227" y="466" width="40" height="20" as="geometry" />
        </mxCell>
        <mxCell id="QZhExzyKwdBtSW_HFHdL-92" value="Description of design&lt;br&gt;Top Chosen&lt;br&gt;Size Chosen" style="text;html=1;align=center;verticalAlign=middle;resizable=0;points=[];autosize=1;" vertex="1" parent="1">
          <mxGeometry x="3327" y="551" width="130" height="50" as="geometry" />
        </mxCell>
        <mxCell id="QZhExzyKwdBtSW_HFHdL-93" value="$25.00" style="text;html=1;align=center;verticalAlign=middle;resizable=0;points=[];autosize=1;" vertex="1" parent="1">
          <mxGeometry x="3667" y="566" width="50" height="20" as="geometry" />
        </mxCell>
        <mxCell id="QZhExzyKwdBtSW_HFHdL-94" value="2" style="text;html=1;align=center;verticalAlign=middle;resizable=0;points=[];autosize=1;" vertex="1" parent="1">
          <mxGeometry x="3837" y="566" width="20" height="20" as="geometry" />
        </mxCell>
        <mxCell id="QZhExzyKwdBtSW_HFHdL-95" value="$50.00" style="text;html=1;align=center;verticalAlign=middle;resizable=0;points=[];autosize=1;" vertex="1" parent="1">
          <mxGeometry x="4112" y="566" width="50" height="20" as="geometry" />
        </mxCell>
        <mxCell id="QZhExzyKwdBtSW_HFHdL-97" value="" style="endArrow=none;html=1;endSize=0;startSize=0;rounded=0;strokeWidth=1;" edge="1" parent="1">
          <mxGeometry width="50" height="50" relative="1" as="geometry">
            <mxPoint x="3187" y="350.0000000000004" as="sourcePoint" />
            <mxPoint x="4327" y="350.0000000000004" as="targetPoint" />
          </mxGeometry>
        </mxCell>
        <mxCell id="QZhExzyKwdBtSW_HFHdL-98" value="&lt;div&gt;&lt;span&gt;&lt;font style=&quot;font-size: 20px&quot;&gt;LOGO&lt;/font&gt;&lt;/span&gt;&lt;/div&gt;" style="whiteSpace=wrap;html=1;aspect=fixed;align=center;" vertex="1" parent="1">
          <mxGeometry x="3207" y="230" width="80" height="80" as="geometry" />
        </mxCell>
        <mxCell id="QZhExzyKwdBtSW_HFHdL-99" value="&lt;font style=&quot;font-size: 20px&quot;&gt;Company&lt;/font&gt;" style="text;html=1;align=center;verticalAlign=middle;resizable=0;points=[];autosize=1;" vertex="1" parent="1">
          <mxGeometry x="3297" y="250" width="100" height="20" as="geometry" />
        </mxCell>
        <mxCell id="QZhExzyKwdBtSW_HFHdL-100" value="&lt;font style=&quot;font-size: 20px&quot;&gt;Name&lt;/font&gt;" style="text;html=1;align=center;verticalAlign=middle;resizable=0;points=[];autosize=1;" vertex="1" parent="1">
          <mxGeometry x="3312" y="270" width="70" height="20" as="geometry" />
        </mxCell>
        <mxCell id="QZhExzyKwdBtSW_HFHdL-101" value="" style="html=1;verticalLabelPosition=bottom;align=center;labelBackgroundColor=#ffffff;verticalAlign=top;strokeWidth=2;strokeColor=#0080F0;shadow=0;dashed=0;shape=mxgraph.ios7.icons.shopping_cart;" vertex="1" parent="1">
          <mxGeometry x="4276" y="320" width="30" height="20" as="geometry" />
        </mxCell>
        <mxCell id="QZhExzyKwdBtSW_HFHdL-102" value="&lt;font style=&quot;font-size: 16px&quot;&gt;Login&lt;/font&gt;" style="text;html=1;strokeColor=none;fillColor=none;align=center;verticalAlign=middle;whiteSpace=wrap;rounded=0;" vertex="1" parent="1">
          <mxGeometry x="4206" y="320" width="50" height="20" as="geometry" />
        </mxCell>
        <mxCell id="QZhExzyKwdBtSW_HFHdL-103" value="&lt;font style=&quot;font-size: 18px;&quot;&gt;Home&lt;/font&gt;" style="text;html=1;strokeColor=none;fillColor=none;align=center;verticalAlign=middle;whiteSpace=wrap;rounded=0;fontSize=18;" vertex="1" parent="1">
          <mxGeometry x="3698" y="320" width="40" height="20" as="geometry" />
        </mxCell>
        <mxCell id="QZhExzyKwdBtSW_HFHdL-104" value="Browse" style="text;html=1;strokeColor=none;fillColor=none;align=center;verticalAlign=middle;whiteSpace=wrap;rounded=0;fontSize=18;" vertex="1" parent="1">
          <mxGeometry x="3766" y="320" width="40" height="20" as="geometry" />
        </mxCell>
        <mxCell id="QZhExzyKwdBtSW_HFHdL-105" value="Start Selling" style="text;html=1;align=center;verticalAlign=middle;whiteSpace=wrap;rounded=0;fontColor=#3399FF;" vertex="1" parent="1">
          <mxGeometry x="3967.25" y="310" width="73.5" height="40" as="geometry" />
        </mxCell>
        <mxCell id="QZhExzyKwdBtSW_HFHdL-106" value="Signup" style="text;html=1;align=center;verticalAlign=middle;whiteSpace=wrap;rounded=0;fontColor=#3399FF;" vertex="1" parent="1">
          <mxGeometry x="4047.25" y="310" width="43.5" height="40" as="geometry" />
        </mxCell>
      </root>
    </mxGraphModel>
  </diagram>
</mxfile>
